<svg xmlns="http://www.w3.org/2000/svg" width="25" height="22.352" viewBox="0 0 25 22.352">
  <g id="heart-2" transform="translate(0.5 0.5)">
    <path id="Path_8" data-name="Path 8" d="M24,7.213a8.932,8.932,0,0,1-2.38,5.847,50.737,50.737,0,0,1-5.958,5.593c-.826.7-1.762,1.5-2.734,2.352a1.408,1.408,0,0,1-.919.348H12A1.407,1.407,0,0,1,11.072,21c-.97-.848-1.9-1.645-2.729-2.348l0,0A50.755,50.755,0,0,1,2.38,13.059,8.931,8.931,0,0,1,0,7.213,7.5,7.5,0,0,1,1.9,2.089,6.453,6.453,0,0,1,6.7,0a6.037,6.037,0,0,1,3.771,1.3A7.7,7.7,0,0,1,12,2.893l.008-.011A7.7,7.7,0,0,1,13.525,1.3,6.037,6.037,0,0,1,17.3,0a6.452,6.452,0,0,1,4.8,2.089A7.5,7.5,0,0,1,24,7.213Zm0,0" transform="translate(0 0)" fill="none" stroke="#707070" stroke-width="1"/>
  </g>
</svg>
