<svg id="heart-2" xmlns="http://www.w3.org/2000/svg" width="23.819" height="21.191" viewBox="0 0 23.819 21.191">
  <path id="Path_8" data-name="Path 8" d="M23.819,7.158a8.865,8.865,0,0,1-2.362,5.8,50.353,50.353,0,0,1-5.913,5.55c-.82.7-1.749,1.49-2.713,2.334a1.4,1.4,0,0,1-.912.346h-.008a1.4,1.4,0,0,1-.921-.346C10.026,20,9.1,19.212,8.28,18.515l0,0a50.371,50.371,0,0,1-5.914-5.551A8.863,8.863,0,0,1,0,7.158,7.445,7.445,0,0,1,1.89,2.074,6.4,6.4,0,0,1,6.654,0,5.992,5.992,0,0,1,10.4,1.291a7.643,7.643,0,0,1,1.513,1.58l.008-.011a7.64,7.64,0,0,1,1.5-1.569A5.991,5.991,0,0,1,17.165,0a6.4,6.4,0,0,1,4.764,2.074A7.444,7.444,0,0,1,23.819,7.158Zm0,0" transform="translate(0 0)" fill="#6c91a1"/>
  <path id="Path_9" data-name="Path 9" d="M268.081,7.158a8.865,8.865,0,0,1-2.362,5.8,50.353,50.353,0,0,1-5.913,5.55c-.82.7-1.749,1.49-2.713,2.334a1.4,1.4,0,0,1-.912.346V2.86a7.64,7.64,0,0,1,1.5-1.569A5.991,5.991,0,0,1,261.427,0a6.4,6.4,0,0,1,4.764,2.074A7.444,7.444,0,0,1,268.081,7.158Zm0,0" transform="translate(-244.262 0)" fill="#7ca2b2"/>
</svg>
